<svg xmlns="http://www.w3.org/2000/svg" class="c" viewBox="0 0 640 250" width="640" height="250" role="img" aria-label="Daily active users, last 28 days">
<style>.c{--s:#fcfcfb;--ink:#0b0b0b;--ink2:#52514e;--mut:#898781;--grid:#e1e0d9;--base:#c3c2b7;--s1:#2a78d6;--s2:#eb6834;--s3:#1baf7a}@media (prefers-color-scheme: dark){:root:where(:not([data-theme="light"])) .c{--s:#1a1a19;--ink:#ffffff;--ink2:#c3c2b7;--mut:#898781;--grid:#2c2c2a;--base:#383835;--s1:#3987e5;--s2:#d95926;--s3:#199e70}}:root[data-theme="dark"] .c{--s:#1a1a19;--ink:#ffffff;--ink2:#c3c2b7;--mut:#898781;--grid:#2c2c2a;--base:#383835;--s1:#3987e5;--s2:#d95926;--s3:#199e70}.c text{font-family:system-ui,-apple-system,"Segoe UI",sans-serif;font-size:11px;fill:var(--ink2)}.c .t{fill:var(--ink);font-size:13px;font-weight:600}.c .st{fill:var(--mut)}.c .ax{fill:var(--mut);font-variant-numeric:tabular-nums}.c .v{fill:var(--ink)}.c .hit{fill:transparent}</style>
<rect width="640" height="250" fill="var(--s)" rx="8"/>
<text class="t" x="16" y="22">Daily active users, last 28 days</text>
<text class="st" x="16" y="38">Creator Dashboard export</text>
<line x1="56" x2="570" y1="220.0" y2="220.0" stroke="var(--grid)" stroke-width="1"/>
<text class="ax" x="50" y="223.5" text-anchor="end">0</text>
<line x1="56" x2="570" y1="166.0" y2="166.0" stroke="var(--grid)" stroke-width="1"/>
<text class="ax" x="50" y="169.5" text-anchor="end">100</text>
<line x1="56" x2="570" y1="112.0" y2="112.0" stroke="var(--grid)" stroke-width="1"/>
<text class="ax" x="50" y="115.5" text-anchor="end">200</text>
<line x1="56" x2="570" y1="58.0" y2="58.0" stroke="var(--grid)" stroke-width="1"/>
<text class="ax" x="50" y="61.5" text-anchor="end">300</text>
<line x1="56" x2="570" y1="220" y2="220" stroke="var(--base)" stroke-width="1"/>
<text class="ax" x="94.1" y="235" text-anchor="middle">09-02</text>
<text class="ax" x="189.3" y="235" text-anchor="middle">09-07</text>
<text class="ax" x="284.4" y="235" text-anchor="middle">09-12</text>
<text class="ax" x="379.6" y="235" text-anchor="middle">09-17</text>
<text class="ax" x="474.8" y="235" text-anchor="middle">09-22</text>
<text class="ax" x="570.0" y="235" text-anchor="middle">09-27</text>
<line x1="56" x2="570" y1="166.0" y2="166.0" stroke="var(--ink2)" stroke-width="1"/>
<text x="60" y="162.0" stroke="var(--s)" stroke-width="3" paint-order="stroke">gate &gt;= 100</text>
<path d="M56.0,175.7 L75.0,167.6 L94.1,168.7 L113.1,163.3 L132.1,160.6 L151.2,148.7 L170.2,150.9 L189.3,164.4 L208.3,156.3 L227.3,158.4 L246.4,155.2 L265.4,153.6 L284.4,140.1 L303.5,130.4 L322.5,148.2 L341.6,140.6 L360.6,147.6 L379.6,148.7 L398.7,140.1 L417.7,130.4 L436.7,123.9 L455.8,139.0 L474.8,135.2 L493.9,135.8 L512.9,127.7 L531.9,132.5 L551.0,114.7 L570.0,115.8" fill="none" stroke="var(--s1)" stroke-width="2" stroke-linejoin="round" stroke-linecap="round"/>
<circle class="hit" cx="56.0" cy="175.7" r="7"><title>DAU 08-31: 82</title></circle>
<circle class="hit" cx="75.0" cy="167.6" r="7"><title>DAU 09-01: 97</title></circle>
<circle class="hit" cx="94.1" cy="168.7" r="7"><title>DAU 09-02: 95</title></circle>
<circle class="hit" cx="113.1" cy="163.3" r="7"><title>DAU 09-03: 105</title></circle>
<circle class="hit" cx="132.1" cy="160.6" r="7"><title>DAU 09-04: 110</title></circle>
<circle class="hit" cx="151.2" cy="148.7" r="7"><title>DAU 09-05: 132</title></circle>
<circle class="hit" cx="170.2" cy="150.9" r="7"><title>DAU 09-06: 128</title></circle>
<circle class="hit" cx="189.3" cy="164.4" r="7"><title>DAU 09-07: 103</title></circle>
<circle class="hit" cx="208.3" cy="156.3" r="7"><title>DAU 09-08: 118</title></circle>
<circle class="hit" cx="227.3" cy="158.4" r="7"><title>DAU 09-09: 114</title></circle>
<circle class="hit" cx="246.4" cy="155.2" r="7"><title>DAU 09-10: 120</title></circle>
<circle class="hit" cx="265.4" cy="153.6" r="7"><title>DAU 09-11: 123</title></circle>
<circle class="hit" cx="284.4" cy="140.1" r="7"><title>DAU 09-12: 148</title></circle>
<circle class="hit" cx="303.5" cy="130.4" r="7"><title>DAU 09-13: 166</title></circle>
<circle class="hit" cx="322.5" cy="148.2" r="7"><title>DAU 09-14: 133</title></circle>
<circle class="hit" cx="341.6" cy="140.6" r="7"><title>DAU 09-15: 147</title></circle>
<circle class="hit" cx="360.6" cy="147.6" r="7"><title>DAU 09-16: 134</title></circle>
<circle class="hit" cx="379.6" cy="148.7" r="7"><title>DAU 09-17: 132</title></circle>
<circle class="hit" cx="398.7" cy="140.1" r="7"><title>DAU 09-18: 148</title></circle>
<circle class="hit" cx="417.7" cy="130.4" r="7"><title>DAU 09-19: 166</title></circle>
<circle class="hit" cx="436.7" cy="123.9" r="7"><title>DAU 09-20: 178</title></circle>
<circle class="hit" cx="455.8" cy="139.0" r="7"><title>DAU 09-21: 150</title></circle>
<circle class="hit" cx="474.8" cy="135.2" r="7"><title>DAU 09-22: 157</title></circle>
<circle class="hit" cx="493.9" cy="135.8" r="7"><title>DAU 09-23: 156</title></circle>
<circle class="hit" cx="512.9" cy="127.7" r="7"><title>DAU 09-24: 171</title></circle>
<circle class="hit" cx="531.9" cy="132.5" r="7"><title>DAU 09-25: 162</title></circle>
<circle class="hit" cx="551.0" cy="114.7" r="7"><title>DAU 09-26: 195</title></circle>
<circle class="hit" cx="570.0" cy="115.8" r="7"><title>DAU 09-27: 193</title></circle>
<circle cx="570.0" cy="115.8" r="4" fill="var(--s1)" stroke="var(--s)" stroke-width="2"/>
<text class="v" x="578.0" y="119.8">193</text>
</svg>